<mxfile host="app.diagrams.net" modified="2020-04-30T00:26:41.460Z" agent="5.0 (X11; Linux x86_64) AppleWebKit/537.36 (KHTML, like Gecko) Chrome/80.0.3987.116 Safari/537.36" etag="6vRDI5oRqbPa7STLQgRV" version="13.0.2" type="github">
  <diagram id="vwbjcZN3HUG5_Yrul42C" name="Page-1">
    <mxGraphModel dx="4432" dy="1824" grid="1" gridSize="10" guides="1" tooltips="1" connect="1" arrows="1" fold="1" page="1" pageScale="1" pageWidth="850" pageHeight="1100" math="0" shadow="0">
      <root>
        <mxCell id="0" />
        <mxCell id="1" parent="0" />
        <mxCell id="3QzFVQZJp-mWmI0BrGXV-1" value="" style="fillColor=#AE4132;strokeColor=none;opacity=30;" parent="1" vertex="1">
          <mxGeometry x="2300.5" y="40" width="210" height="99.99999999999994" as="geometry" />
        </mxCell>
        <mxCell id="3QzFVQZJp-mWmI0BrGXV-2" value="" style="fillColor=#10739E;strokeColor=none;opacity=30;" parent="1" vertex="1">
          <mxGeometry x="1300" y="176.75" width="2250" height="106.5" as="geometry" />
        </mxCell>
        <mxCell id="3QzFVQZJp-mWmI0BrGXV-4" value="" style="fillColor=#F2931E;strokeColor=none;opacity=30;" parent="1" vertex="1">
          <mxGeometry x="166" y="513" width="1230" height="84.5" as="geometry" />
        </mxCell>
        <mxCell id="3QzFVQZJp-mWmI0BrGXV-5" value="" style="fillColor=#12AAB5;strokeColor=none;opacity=30;" parent="1" vertex="1">
          <mxGeometry x="2074" y="596.5" width="142" height="363.5" as="geometry" />
        </mxCell>
        <mxCell id="3QzFVQZJp-mWmI0BrGXV-7" value="" style="fillColor=#FF0000;strokeColor=none;opacity=30;" parent="1" vertex="1">
          <mxGeometry x="2650" y="460" width="130" height="510" as="geometry" />
        </mxCell>
        <mxCell id="3QzFVQZJp-mWmI0BrGXV-8" value="" style="fillColor=#336600;strokeColor=none;opacity=30;" parent="1" vertex="1">
          <mxGeometry x="690" y="364.5" width="1470" height="80" as="geometry" />
        </mxCell>
        <mxCell id="3QzFVQZJp-mWmI0BrGXV-11" value="" style="fillColor=#12AAB5;strokeColor=none;opacity=30;" parent="1" vertex="1">
          <mxGeometry x="474" y="606" width="140" height="335" as="geometry" />
        </mxCell>
        <mxCell id="3QzFVQZJp-mWmI0BrGXV-13" value="Yazılım Test Türleri" style="rounded=1;fillColor=#23445D;gradientColor=none;strokeColor=none;fontColor=#FFFFFF;fontStyle=1;fontFamily=Tahoma;fontSize=14" parent="1" vertex="1">
          <mxGeometry x="2310.5" y="49.99999999999997" width="190" height="80" as="geometry" />
        </mxCell>
        <mxCell id="3QzFVQZJp-mWmI0BrGXV-14" value="" style="edgeStyle=elbowEdgeStyle;elbow=vertical;strokeWidth=2;rounded=0;entryX=0.5;entryY=0;entryDx=0;entryDy=0;" parent="1" source="3QzFVQZJp-mWmI0BrGXV-13" target="3QzFVQZJp-mWmI0BrGXV-20" edge="1">
          <mxGeometry x="1957" y="79.99999999999997" width="100" height="100" as="geometry">
            <mxPoint x="1957" y="179.99999999999997" as="sourcePoint" />
            <mxPoint x="3077" y="199.99999999999997" as="targetPoint" />
            <Array as="points">
              <mxPoint x="2620" y="164.49999999999997" />
              <mxPoint x="2670" y="166.49999999999997" />
            </Array>
          </mxGeometry>
        </mxCell>
        <mxCell id="3QzFVQZJp-mWmI0BrGXV-15" style="edgeStyle=orthogonalEdgeStyle;rounded=0;orthogonalLoop=1;jettySize=auto;html=1;entryX=0.5;entryY=0;entryDx=0;entryDy=0;" parent="1" source="3QzFVQZJp-mWmI0BrGXV-20" target="3QzFVQZJp-mWmI0BrGXV-57" edge="1">
          <mxGeometry relative="1" as="geometry">
            <mxPoint x="3395" y="364.5" as="targetPoint" />
          </mxGeometry>
        </mxCell>
        <mxCell id="3QzFVQZJp-mWmI0BrGXV-16" style="edgeStyle=orthogonalEdgeStyle;rounded=0;orthogonalLoop=1;jettySize=auto;html=1;entryX=0.5;entryY=0;entryDx=0;entryDy=0;" parent="1" source="3QzFVQZJp-mWmI0BrGXV-20" target="3QzFVQZJp-mWmI0BrGXV-56" edge="1">
          <mxGeometry relative="1" as="geometry">
            <mxPoint x="3195" y="364.5" as="targetPoint" />
            <Array as="points">
              <mxPoint x="3395" y="304.5" />
              <mxPoint x="3195" y="304.5" />
            </Array>
          </mxGeometry>
        </mxCell>
        <mxCell id="3QzFVQZJp-mWmI0BrGXV-17" style="edgeStyle=orthogonalEdgeStyle;rounded=0;orthogonalLoop=1;jettySize=auto;html=1;entryX=0.5;entryY=0;entryDx=0;entryDy=0;" parent="1" source="3QzFVQZJp-mWmI0BrGXV-20" target="3QzFVQZJp-mWmI0BrGXV-55" edge="1">
          <mxGeometry relative="1" as="geometry">
            <mxPoint x="2995" y="364.5" as="targetPoint" />
            <Array as="points">
              <mxPoint x="3395" y="304.5" />
              <mxPoint x="2995" y="304.5" />
            </Array>
          </mxGeometry>
        </mxCell>
        <mxCell id="3QzFVQZJp-mWmI0BrGXV-18" style="edgeStyle=orthogonalEdgeStyle;rounded=0;orthogonalLoop=1;jettySize=auto;html=1;entryX=0.5;entryY=0;entryDx=0;entryDy=0;" parent="1" source="3QzFVQZJp-mWmI0BrGXV-20" target="3QzFVQZJp-mWmI0BrGXV-59" edge="1">
          <mxGeometry relative="1" as="geometry">
            <mxPoint x="3575" y="364.5" as="targetPoint" />
            <Array as="points">
              <mxPoint x="3395" y="304.5" />
              <mxPoint x="3575" y="304.5" />
            </Array>
          </mxGeometry>
        </mxCell>
        <mxCell id="3QzFVQZJp-mWmI0BrGXV-19" style="edgeStyle=orthogonalEdgeStyle;rounded=0;orthogonalLoop=1;jettySize=auto;html=1;entryX=0.5;entryY=0;entryDx=0;entryDy=0;" parent="1" source="3QzFVQZJp-mWmI0BrGXV-20" target="3QzFVQZJp-mWmI0BrGXV-58" edge="1">
          <mxGeometry relative="1" as="geometry">
            <mxPoint x="3765" y="364.5" as="targetPoint" />
            <Array as="points">
              <mxPoint x="3395" y="304.5" />
              <mxPoint x="3765" y="304.5" />
            </Array>
          </mxGeometry>
        </mxCell>
        <mxCell id="3QzFVQZJp-mWmI0BrGXV-20" value="Statik Testler" style="rounded=1;fillColor=#23445D;gradientColor=none;strokeColor=none;fontColor=#FFFFFF;fontStyle=1;fontFamily=Tahoma;fontSize=14" parent="1" vertex="1">
          <mxGeometry x="3300" y="189.99999999999997" width="190" height="80" as="geometry" />
        </mxCell>
        <mxCell id="3QzFVQZJp-mWmI0BrGXV-21" style="edgeStyle=orthogonalEdgeStyle;rounded=0;orthogonalLoop=1;jettySize=auto;html=1;entryX=0.5;entryY=0;entryDx=0;entryDy=0;" parent="1" source="3QzFVQZJp-mWmI0BrGXV-23" target="3QzFVQZJp-mWmI0BrGXV-45" edge="1">
          <mxGeometry relative="1" as="geometry">
            <Array as="points">
              <mxPoint x="1435" y="304" />
              <mxPoint x="781" y="304" />
            </Array>
          </mxGeometry>
        </mxCell>
        <mxCell id="3QzFVQZJp-mWmI0BrGXV-22" style="edgeStyle=orthogonalEdgeStyle;rounded=0;orthogonalLoop=1;jettySize=auto;html=1;" parent="1" source="3QzFVQZJp-mWmI0BrGXV-23" target="3QzFVQZJp-mWmI0BrGXV-51" edge="1">
          <mxGeometry relative="1" as="geometry">
            <Array as="points">
              <mxPoint x="1435" y="304" />
              <mxPoint x="2065" y="304" />
            </Array>
          </mxGeometry>
        </mxCell>
        <mxCell id="3QzFVQZJp-mWmI0BrGXV-23" value="Dinamik Testler" style="rounded=1;fillColor=#23445D;gradientColor=none;strokeColor=none;fontColor=#FFFFFF;fontStyle=1;fontFamily=Tahoma;fontSize=14" parent="1" vertex="1">
          <mxGeometry x="1340" y="189.99999999999997" width="190" height="80" as="geometry" />
        </mxCell>
        <mxCell id="3QzFVQZJp-mWmI0BrGXV-32" value="Yük Testi" style="rounded=1;fillColor=#23445D;gradientColor=none;strokeColor=none;fontColor=#FFFFFF;fontStyle=1;fontFamily=Tahoma;fontSize=14" parent="1" vertex="1">
          <mxGeometry x="2089.5" y="620" width="115" height="50" as="geometry" />
        </mxCell>
        <mxCell id="3QzFVQZJp-mWmI0BrGXV-33" value="Stres Testi" style="rounded=1;fillColor=#23445D;gradientColor=none;strokeColor=none;fontColor=#FFFFFF;fontStyle=1;fontFamily=Tahoma;fontSize=14" parent="1" vertex="1">
          <mxGeometry x="2089.5" y="710" width="115" height="50" as="geometry" />
        </mxCell>
        <mxCell id="3QzFVQZJp-mWmI0BrGXV-34" value="Ölçeklenebilirlik&#xa;Testi" style="rounded=1;fillColor=#23445D;gradientColor=none;strokeColor=none;fontColor=#FFFFFF;fontStyle=1;fontFamily=Tahoma;fontSize=14" parent="1" vertex="1">
          <mxGeometry x="2094" y="800" width="115" height="50" as="geometry" />
        </mxCell>
        <mxCell id="3QzFVQZJp-mWmI0BrGXV-35" value="" style="edgeStyle=elbowEdgeStyle;elbow=vertical;strokeWidth=2;rounded=0" parent="1" source="3QzFVQZJp-mWmI0BrGXV-13" target="3QzFVQZJp-mWmI0BrGXV-23" edge="1">
          <mxGeometry x="1597" y="-2.842170943040401e-14" width="100" height="100" as="geometry">
            <mxPoint x="1597" y="99.99999999999997" as="sourcePoint" />
            <mxPoint x="1697" y="-2.842170943040401e-14" as="targetPoint" />
            <Array as="points">
              <mxPoint x="2190" y="164.49999999999997" />
            </Array>
          </mxGeometry>
        </mxCell>
        <mxCell id="3QzFVQZJp-mWmI0BrGXV-39" style="edgeStyle=orthogonalEdgeStyle;rounded=0;orthogonalLoop=1;jettySize=auto;html=1;entryX=0.5;entryY=0;entryDx=0;entryDy=0;" parent="1" source="3QzFVQZJp-mWmI0BrGXV-45" target="3QzFVQZJp-mWmI0BrGXV-64" edge="1">
          <mxGeometry relative="1" as="geometry">
            <Array as="points">
              <mxPoint x="781" y="475.5" />
              <mxPoint x="261" y="475.5" />
            </Array>
          </mxGeometry>
        </mxCell>
        <mxCell id="3QzFVQZJp-mWmI0BrGXV-40" style="edgeStyle=orthogonalEdgeStyle;rounded=0;orthogonalLoop=1;jettySize=auto;html=1;" parent="1" source="3QzFVQZJp-mWmI0BrGXV-45" target="3QzFVQZJp-mWmI0BrGXV-60" edge="1">
          <mxGeometry relative="1" as="geometry">
            <Array as="points">
              <mxPoint x="781" y="475.5" />
              <mxPoint x="461" y="475.5" />
            </Array>
          </mxGeometry>
        </mxCell>
        <mxCell id="3QzFVQZJp-mWmI0BrGXV-41" style="edgeStyle=orthogonalEdgeStyle;rounded=0;orthogonalLoop=1;jettySize=auto;html=1;entryX=0.5;entryY=0;entryDx=0;entryDy=0;" parent="1" source="3QzFVQZJp-mWmI0BrGXV-45" target="3QzFVQZJp-mWmI0BrGXV-61" edge="1">
          <mxGeometry relative="1" as="geometry">
            <Array as="points">
              <mxPoint x="781" y="475.5" />
              <mxPoint x="671" y="475.5" />
            </Array>
          </mxGeometry>
        </mxCell>
        <mxCell id="3QzFVQZJp-mWmI0BrGXV-42" style="edgeStyle=orthogonalEdgeStyle;rounded=0;orthogonalLoop=1;jettySize=auto;html=1;entryX=0.404;entryY=0;entryDx=0;entryDy=0;entryPerimeter=0;" parent="1" source="3QzFVQZJp-mWmI0BrGXV-45" target="3QzFVQZJp-mWmI0BrGXV-62" edge="1">
          <mxGeometry relative="1" as="geometry">
            <Array as="points">
              <mxPoint x="781" y="475.5" />
              <mxPoint x="879" y="475.5" />
            </Array>
          </mxGeometry>
        </mxCell>
        <mxCell id="3QzFVQZJp-mWmI0BrGXV-43" style="edgeStyle=orthogonalEdgeStyle;rounded=0;orthogonalLoop=1;jettySize=auto;html=1;entryX=0.5;entryY=0;entryDx=0;entryDy=0;" parent="1" source="3QzFVQZJp-mWmI0BrGXV-45" target="3QzFVQZJp-mWmI0BrGXV-65" edge="1">
          <mxGeometry relative="1" as="geometry">
            <Array as="points">
              <mxPoint x="781" y="475" />
              <mxPoint x="1111" y="475" />
            </Array>
          </mxGeometry>
        </mxCell>
        <mxCell id="3QzFVQZJp-mWmI0BrGXV-44" style="edgeStyle=orthogonalEdgeStyle;rounded=0;orthogonalLoop=1;jettySize=auto;html=1;" parent="1" source="3QzFVQZJp-mWmI0BrGXV-45" target="3QzFVQZJp-mWmI0BrGXV-63" edge="1">
          <mxGeometry relative="1" as="geometry">
            <Array as="points">
              <mxPoint x="781" y="475" />
              <mxPoint x="1321" y="475" />
            </Array>
          </mxGeometry>
        </mxCell>
        <mxCell id="3QzFVQZJp-mWmI0BrGXV-45" value="Fonksiyonel &#xa;Testler" style="rounded=1;fillColor=#23445D;gradientColor=none;strokeColor=none;fontColor=#FFFFFF;fontStyle=1;fontFamily=Tahoma;fontSize=14" parent="1" vertex="1">
          <mxGeometry x="716" y="375.5" width="130" height="60" as="geometry" />
        </mxCell>
        <mxCell id="3QzFVQZJp-mWmI0BrGXV-46" style="edgeStyle=orthogonalEdgeStyle;rounded=0;orthogonalLoop=1;jettySize=auto;html=1;" parent="1" source="3QzFVQZJp-mWmI0BrGXV-51" target="3QzFVQZJp-mWmI0BrGXV-66" edge="1">
          <mxGeometry relative="1" as="geometry">
            <Array as="points">
              <mxPoint x="2065" y="474.5" />
              <mxPoint x="1645" y="474.5" />
            </Array>
          </mxGeometry>
        </mxCell>
        <mxCell id="3QzFVQZJp-mWmI0BrGXV-47" style="edgeStyle=orthogonalEdgeStyle;rounded=0;orthogonalLoop=1;jettySize=auto;html=1;" parent="1" source="3QzFVQZJp-mWmI0BrGXV-51" target="3QzFVQZJp-mWmI0BrGXV-67" edge="1">
          <mxGeometry relative="1" as="geometry">
            <Array as="points">
              <mxPoint x="2065" y="474.5" />
              <mxPoint x="1845" y="474.5" />
            </Array>
          </mxGeometry>
        </mxCell>
        <mxCell id="3QzFVQZJp-mWmI0BrGXV-48" style="edgeStyle=orthogonalEdgeStyle;rounded=0;orthogonalLoop=1;jettySize=auto;html=1;" parent="1" source="3QzFVQZJp-mWmI0BrGXV-51" target="3QzFVQZJp-mWmI0BrGXV-68" edge="1">
          <mxGeometry relative="1" as="geometry" />
        </mxCell>
        <mxCell id="3QzFVQZJp-mWmI0BrGXV-49" style="edgeStyle=orthogonalEdgeStyle;rounded=0;orthogonalLoop=1;jettySize=auto;html=1;entryX=0.5;entryY=0;entryDx=0;entryDy=0;" parent="1" source="3QzFVQZJp-mWmI0BrGXV-51" target="3QzFVQZJp-mWmI0BrGXV-70" edge="1">
          <mxGeometry relative="1" as="geometry">
            <Array as="points">
              <mxPoint x="2065" y="474.5" />
              <mxPoint x="2265" y="474.5" />
            </Array>
          </mxGeometry>
        </mxCell>
        <mxCell id="3QzFVQZJp-mWmI0BrGXV-50" style="edgeStyle=orthogonalEdgeStyle;rounded=0;orthogonalLoop=1;jettySize=auto;html=1;" parent="1" source="3QzFVQZJp-mWmI0BrGXV-51" target="3QzFVQZJp-mWmI0BrGXV-69" edge="1">
          <mxGeometry relative="1" as="geometry">
            <Array as="points">
              <mxPoint x="2065" y="474.5" />
              <mxPoint x="2475" y="474.5" />
            </Array>
          </mxGeometry>
        </mxCell>
        <mxCell id="3QzFVQZJp-mWmI0BrGXV-51" value="Fonksiyonel&#xa;olmayan Testler" style="rounded=1;fillColor=#23445D;gradientColor=none;strokeColor=none;fontColor=#FFFFFF;fontStyle=1;fontFamily=Tahoma;fontSize=14" parent="1" vertex="1">
          <mxGeometry x="2000" y="375.5" width="130" height="60" as="geometry" />
        </mxCell>
        <mxCell id="3QzFVQZJp-mWmI0BrGXV-52" value="" style="fillColor=#12AAB5;strokeColor=none;opacity=30;" parent="1" vertex="1">
          <mxGeometry x="275" y="606" width="140" height="425" as="geometry" />
        </mxCell>
        <mxCell id="3QzFVQZJp-mWmI0BrGXV-53" value="" style="fillColor=#F2931E;strokeColor=none;opacity=30;" parent="1" vertex="1">
          <mxGeometry x="1540" y="514.5" width="1030" height="80" as="geometry" />
        </mxCell>
        <mxCell id="3QzFVQZJp-mWmI0BrGXV-54" value="" style="fillColor=#663300;strokeColor=none;opacity=30;" parent="1" vertex="1">
          <mxGeometry x="2920" y="366.5" width="931" height="80" as="geometry" />
        </mxCell>
        <mxCell id="3QzFVQZJp-mWmI0BrGXV-55" value="Resmi olmayan&#xa;incelemeler" style="rounded=1;fillColor=#23445D;gradientColor=none;strokeColor=none;fontColor=#FFFFFF;fontStyle=1;fontFamily=Tahoma;fontSize=14" parent="1" vertex="1">
          <mxGeometry x="2930" y="374.5" width="130" height="60" as="geometry" />
        </mxCell>
        <mxCell id="3QzFVQZJp-mWmI0BrGXV-56" value="Teknik&#xa;incelemeler" style="rounded=1;fillColor=#23445D;gradientColor=none;strokeColor=none;fontColor=#FFFFFF;fontStyle=1;fontFamily=Tahoma;fontSize=14" parent="1" vertex="1">
          <mxGeometry x="3130" y="374.5" width="130" height="60" as="geometry" />
        </mxCell>
        <mxCell id="3QzFVQZJp-mWmI0BrGXV-57" value="Bakış&#xa;incelemeleri" style="rounded=1;fillColor=#23445D;gradientColor=none;strokeColor=none;fontColor=#FFFFFF;fontStyle=1;fontFamily=Tahoma;fontSize=14" parent="1" vertex="1">
          <mxGeometry x="3330" y="374.5" width="130" height="60" as="geometry" />
        </mxCell>
        <mxCell id="3QzFVQZJp-mWmI0BrGXV-58" value="Statik kod &#xa;incelemeleri" style="rounded=1;fillColor=#23445D;gradientColor=none;strokeColor=none;fontColor=#FFFFFF;fontStyle=1;fontFamily=Tahoma;fontSize=14" parent="1" vertex="1">
          <mxGeometry x="3700" y="374.5" width="130" height="60" as="geometry" />
        </mxCell>
        <mxCell id="3QzFVQZJp-mWmI0BrGXV-59" value="Teftiş&#xa;(Kusur araştırma)" style="rounded=1;fillColor=#23445D;gradientColor=none;strokeColor=none;fontColor=#FFFFFF;fontStyle=1;fontFamily=Tahoma;fontSize=14" parent="1" vertex="1">
          <mxGeometry x="3510" y="374.5" width="130" height="60" as="geometry" />
        </mxCell>
        <mxCell id="3QzFVQZJp-mWmI0BrGXV-94" style="edgeStyle=orthogonalEdgeStyle;rounded=0;orthogonalLoop=1;jettySize=auto;html=1;entryX=0;entryY=0.5;entryDx=0;entryDy=0;" parent="1" source="3QzFVQZJp-mWmI0BrGXV-60" target="3QzFVQZJp-mWmI0BrGXV-89" edge="1">
          <mxGeometry relative="1" as="geometry" />
        </mxCell>
        <mxCell id="3QzFVQZJp-mWmI0BrGXV-95" style="edgeStyle=orthogonalEdgeStyle;rounded=0;orthogonalLoop=1;jettySize=auto;html=1;entryX=0;entryY=0.5;entryDx=0;entryDy=0;" parent="1" source="3QzFVQZJp-mWmI0BrGXV-60" target="3QzFVQZJp-mWmI0BrGXV-90" edge="1">
          <mxGeometry relative="1" as="geometry" />
        </mxCell>
        <mxCell id="3QzFVQZJp-mWmI0BrGXV-96" style="edgeStyle=orthogonalEdgeStyle;rounded=0;orthogonalLoop=1;jettySize=auto;html=1;entryX=0;entryY=0.5;entryDx=0;entryDy=0;" parent="1" source="3QzFVQZJp-mWmI0BrGXV-60" target="3QzFVQZJp-mWmI0BrGXV-91" edge="1">
          <mxGeometry relative="1" as="geometry" />
        </mxCell>
        <mxCell id="3QzFVQZJp-mWmI0BrGXV-97" style="edgeStyle=orthogonalEdgeStyle;rounded=0;orthogonalLoop=1;jettySize=auto;html=1;entryX=0;entryY=0.5;entryDx=0;entryDy=0;" parent="1" source="3QzFVQZJp-mWmI0BrGXV-60" target="3QzFVQZJp-mWmI0BrGXV-92" edge="1">
          <mxGeometry relative="1" as="geometry" />
        </mxCell>
        <mxCell id="3QzFVQZJp-mWmI0BrGXV-60" value="Entegrasyon&#xa;Testi" style="rounded=1;fillColor=#23445D;gradientColor=none;strokeColor=none;fontColor=#FFFFFF;fontStyle=1;fontFamily=Tahoma;fontSize=14" parent="1" vertex="1">
          <mxGeometry x="396" y="525.5" width="130" height="60" as="geometry" />
        </mxCell>
        <mxCell id="3QzFVQZJp-mWmI0BrGXV-104" style="edgeStyle=orthogonalEdgeStyle;rounded=0;orthogonalLoop=1;jettySize=auto;html=1;entryX=0;entryY=0.5;entryDx=0;entryDy=0;" parent="1" source="3QzFVQZJp-mWmI0BrGXV-61" target="3QzFVQZJp-mWmI0BrGXV-100" edge="1">
          <mxGeometry relative="1" as="geometry" />
        </mxCell>
        <mxCell id="3QzFVQZJp-mWmI0BrGXV-105" style="edgeStyle=orthogonalEdgeStyle;rounded=0;orthogonalLoop=1;jettySize=auto;html=1;entryX=0;entryY=0.5;entryDx=0;entryDy=0;" parent="1" source="3QzFVQZJp-mWmI0BrGXV-61" target="3QzFVQZJp-mWmI0BrGXV-101" edge="1">
          <mxGeometry relative="1" as="geometry" />
        </mxCell>
        <mxCell id="3QzFVQZJp-mWmI0BrGXV-106" style="edgeStyle=orthogonalEdgeStyle;rounded=0;orthogonalLoop=1;jettySize=auto;html=1;entryX=0;entryY=0.5;entryDx=0;entryDy=0;" parent="1" source="3QzFVQZJp-mWmI0BrGXV-61" target="3QzFVQZJp-mWmI0BrGXV-102" edge="1">
          <mxGeometry relative="1" as="geometry" />
        </mxCell>
        <mxCell id="3QzFVQZJp-mWmI0BrGXV-109" style="edgeStyle=orthogonalEdgeStyle;rounded=0;orthogonalLoop=1;jettySize=auto;html=1;entryX=0;entryY=0.5;entryDx=0;entryDy=0;" parent="1" source="3QzFVQZJp-mWmI0BrGXV-61" target="3QzFVQZJp-mWmI0BrGXV-103" edge="1">
          <mxGeometry relative="1" as="geometry" />
        </mxCell>
        <mxCell id="3QzFVQZJp-mWmI0BrGXV-61" value="Arayüz&#xa;Testi" style="rounded=1;fillColor=#23445D;gradientColor=none;strokeColor=none;fontColor=#FFFFFF;fontStyle=1;fontFamily=Tahoma;fontSize=14" parent="1" vertex="1">
          <mxGeometry x="606" y="525.5" width="130" height="60" as="geometry" />
        </mxCell>
        <mxCell id="3QzFVQZJp-mWmI0BrGXV-136" style="edgeStyle=orthogonalEdgeStyle;rounded=0;orthogonalLoop=1;jettySize=auto;html=1;entryX=0;entryY=0.5;entryDx=0;entryDy=0;" parent="1" source="3QzFVQZJp-mWmI0BrGXV-62" target="3QzFVQZJp-mWmI0BrGXV-124" edge="1">
          <mxGeometry relative="1" as="geometry" />
        </mxCell>
        <mxCell id="3QzFVQZJp-mWmI0BrGXV-137" style="edgeStyle=orthogonalEdgeStyle;rounded=0;orthogonalLoop=1;jettySize=auto;html=1;entryX=0;entryY=0.5;entryDx=0;entryDy=0;" parent="1" source="3QzFVQZJp-mWmI0BrGXV-62" target="3QzFVQZJp-mWmI0BrGXV-125" edge="1">
          <mxGeometry relative="1" as="geometry" />
        </mxCell>
        <mxCell id="3QzFVQZJp-mWmI0BrGXV-138" style="edgeStyle=orthogonalEdgeStyle;rounded=0;orthogonalLoop=1;jettySize=auto;html=1;entryX=0;entryY=0.5;entryDx=0;entryDy=0;" parent="1" source="3QzFVQZJp-mWmI0BrGXV-62" target="3QzFVQZJp-mWmI0BrGXV-126" edge="1">
          <mxGeometry relative="1" as="geometry" />
        </mxCell>
        <mxCell id="3QzFVQZJp-mWmI0BrGXV-139" style="edgeStyle=orthogonalEdgeStyle;rounded=0;orthogonalLoop=1;jettySize=auto;html=1;entryX=0;entryY=0.5;entryDx=0;entryDy=0;" parent="1" source="3QzFVQZJp-mWmI0BrGXV-62" target="3QzFVQZJp-mWmI0BrGXV-127" edge="1">
          <mxGeometry relative="1" as="geometry" />
        </mxCell>
        <mxCell id="3QzFVQZJp-mWmI0BrGXV-140" style="edgeStyle=orthogonalEdgeStyle;rounded=0;orthogonalLoop=1;jettySize=auto;html=1;entryX=0;entryY=0.5;entryDx=0;entryDy=0;" parent="1" source="3QzFVQZJp-mWmI0BrGXV-62" target="3QzFVQZJp-mWmI0BrGXV-131" edge="1">
          <mxGeometry relative="1" as="geometry" />
        </mxCell>
        <mxCell id="3QzFVQZJp-mWmI0BrGXV-141" style="edgeStyle=orthogonalEdgeStyle;rounded=0;orthogonalLoop=1;jettySize=auto;html=1;entryX=0;entryY=0.5;entryDx=0;entryDy=0;" parent="1" source="3QzFVQZJp-mWmI0BrGXV-62" target="3QzFVQZJp-mWmI0BrGXV-130" edge="1">
          <mxGeometry relative="1" as="geometry" />
        </mxCell>
        <mxCell id="3QzFVQZJp-mWmI0BrGXV-142" style="edgeStyle=orthogonalEdgeStyle;rounded=0;orthogonalLoop=1;jettySize=auto;html=1;entryX=0;entryY=0.5;entryDx=0;entryDy=0;" parent="1" source="3QzFVQZJp-mWmI0BrGXV-62" target="3QzFVQZJp-mWmI0BrGXV-128" edge="1">
          <mxGeometry relative="1" as="geometry" />
        </mxCell>
        <mxCell id="3QzFVQZJp-mWmI0BrGXV-62" value="Sistem&#xa;Testi" style="rounded=1;fillColor=#23445D;gradientColor=none;strokeColor=none;fontColor=#FFFFFF;fontStyle=1;fontFamily=Tahoma;fontSize=14" parent="1" vertex="1">
          <mxGeometry x="826" y="525.5" width="130" height="60" as="geometry" />
        </mxCell>
        <mxCell id="3QzFVQZJp-mWmI0BrGXV-181" style="edgeStyle=orthogonalEdgeStyle;rounded=0;orthogonalLoop=1;jettySize=auto;html=1;entryX=0;entryY=0.5;entryDx=0;entryDy=0;" parent="1" source="3QzFVQZJp-mWmI0BrGXV-63" target="3QzFVQZJp-mWmI0BrGXV-175" edge="1">
          <mxGeometry relative="1" as="geometry" />
        </mxCell>
        <mxCell id="3QzFVQZJp-mWmI0BrGXV-182" style="edgeStyle=orthogonalEdgeStyle;rounded=0;orthogonalLoop=1;jettySize=auto;html=1;entryX=0;entryY=0.5;entryDx=0;entryDy=0;" parent="1" source="3QzFVQZJp-mWmI0BrGXV-63" target="3QzFVQZJp-mWmI0BrGXV-177" edge="1">
          <mxGeometry relative="1" as="geometry" />
        </mxCell>
        <mxCell id="3QzFVQZJp-mWmI0BrGXV-183" style="edgeStyle=orthogonalEdgeStyle;rounded=0;orthogonalLoop=1;jettySize=auto;html=1;entryX=0;entryY=0.5;entryDx=0;entryDy=0;" parent="1" source="3QzFVQZJp-mWmI0BrGXV-63" target="3QzFVQZJp-mWmI0BrGXV-176" edge="1">
          <mxGeometry relative="1" as="geometry" />
        </mxCell>
        <mxCell id="3QzFVQZJp-mWmI0BrGXV-184" style="edgeStyle=orthogonalEdgeStyle;rounded=0;orthogonalLoop=1;jettySize=auto;html=1;entryX=0;entryY=0.5;entryDx=0;entryDy=0;" parent="1" source="3QzFVQZJp-mWmI0BrGXV-63" target="3QzFVQZJp-mWmI0BrGXV-178" edge="1">
          <mxGeometry relative="1" as="geometry" />
        </mxCell>
        <mxCell id="3QzFVQZJp-mWmI0BrGXV-185" style="edgeStyle=orthogonalEdgeStyle;rounded=0;orthogonalLoop=1;jettySize=auto;html=1;entryX=0;entryY=0.5;entryDx=0;entryDy=0;" parent="1" source="3QzFVQZJp-mWmI0BrGXV-63" target="3QzFVQZJp-mWmI0BrGXV-179" edge="1">
          <mxGeometry relative="1" as="geometry" />
        </mxCell>
        <mxCell id="3QzFVQZJp-mWmI0BrGXV-63" value="Kullanıcı Kabul&#xa;Testi" style="rounded=1;fillColor=#23445D;gradientColor=none;strokeColor=none;fontColor=#FFFFFF;fontStyle=1;fontFamily=Tahoma;fontSize=14" parent="1" vertex="1">
          <mxGeometry x="1255.5" y="525.25" width="130" height="60" as="geometry" />
        </mxCell>
        <mxCell id="3QzFVQZJp-mWmI0BrGXV-82" style="edgeStyle=orthogonalEdgeStyle;rounded=0;orthogonalLoop=1;jettySize=auto;html=1;entryX=0;entryY=0.5;entryDx=0;entryDy=0;" parent="1" source="3QzFVQZJp-mWmI0BrGXV-64" target="3QzFVQZJp-mWmI0BrGXV-78" edge="1">
          <mxGeometry relative="1" as="geometry" />
        </mxCell>
        <mxCell id="3QzFVQZJp-mWmI0BrGXV-83" style="edgeStyle=orthogonalEdgeStyle;rounded=0;orthogonalLoop=1;jettySize=auto;html=1;entryX=0;entryY=0.5;entryDx=0;entryDy=0;" parent="1" source="3QzFVQZJp-mWmI0BrGXV-64" target="3QzFVQZJp-mWmI0BrGXV-79" edge="1">
          <mxGeometry relative="1" as="geometry" />
        </mxCell>
        <mxCell id="3QzFVQZJp-mWmI0BrGXV-84" style="edgeStyle=orthogonalEdgeStyle;rounded=0;orthogonalLoop=1;jettySize=auto;html=1;entryX=0;entryY=0.5;entryDx=0;entryDy=0;" parent="1" source="3QzFVQZJp-mWmI0BrGXV-64" target="3QzFVQZJp-mWmI0BrGXV-80" edge="1">
          <mxGeometry relative="1" as="geometry" />
        </mxCell>
        <mxCell id="3QzFVQZJp-mWmI0BrGXV-85" style="edgeStyle=orthogonalEdgeStyle;rounded=0;orthogonalLoop=1;jettySize=auto;html=1;entryX=0;entryY=0.5;entryDx=0;entryDy=0;" parent="1" source="3QzFVQZJp-mWmI0BrGXV-64" target="3QzFVQZJp-mWmI0BrGXV-81" edge="1">
          <mxGeometry relative="1" as="geometry" />
        </mxCell>
        <mxCell id="3QzFVQZJp-mWmI0BrGXV-88" style="edgeStyle=orthogonalEdgeStyle;rounded=0;orthogonalLoop=1;jettySize=auto;html=1;entryX=0;entryY=0.5;entryDx=0;entryDy=0;" parent="1" source="3QzFVQZJp-mWmI0BrGXV-64" target="3QzFVQZJp-mWmI0BrGXV-87" edge="1">
          <mxGeometry relative="1" as="geometry" />
        </mxCell>
        <mxCell id="3QzFVQZJp-mWmI0BrGXV-64" value="Birim&#xa;Testi" style="rounded=1;fillColor=#23445D;gradientColor=none;strokeColor=none;fontColor=#FFFFFF;fontStyle=1;fontFamily=Tahoma;fontSize=14" parent="1" vertex="1">
          <mxGeometry x="196" y="525.5" width="130" height="60" as="geometry" />
        </mxCell>
        <mxCell id="3QzFVQZJp-mWmI0BrGXV-167" style="edgeStyle=orthogonalEdgeStyle;rounded=0;orthogonalLoop=1;jettySize=auto;html=1;entryX=0;entryY=0.5;entryDx=0;entryDy=0;" parent="1" source="3QzFVQZJp-mWmI0BrGXV-65" target="3QzFVQZJp-mWmI0BrGXV-159" edge="1">
          <mxGeometry relative="1" as="geometry" />
        </mxCell>
        <mxCell id="3QzFVQZJp-mWmI0BrGXV-168" style="edgeStyle=orthogonalEdgeStyle;rounded=0;orthogonalLoop=1;jettySize=auto;html=1;entryX=0;entryY=0.5;entryDx=0;entryDy=0;" parent="1" source="3QzFVQZJp-mWmI0BrGXV-65" target="3QzFVQZJp-mWmI0BrGXV-160" edge="1">
          <mxGeometry relative="1" as="geometry" />
        </mxCell>
        <mxCell id="3QzFVQZJp-mWmI0BrGXV-169" style="edgeStyle=orthogonalEdgeStyle;rounded=0;orthogonalLoop=1;jettySize=auto;html=1;entryX=0;entryY=0.5;entryDx=0;entryDy=0;" parent="1" source="3QzFVQZJp-mWmI0BrGXV-65" target="3QzFVQZJp-mWmI0BrGXV-161" edge="1">
          <mxGeometry relative="1" as="geometry" />
        </mxCell>
        <mxCell id="3QzFVQZJp-mWmI0BrGXV-170" style="edgeStyle=orthogonalEdgeStyle;rounded=0;orthogonalLoop=1;jettySize=auto;html=1;entryX=0;entryY=0.5;entryDx=0;entryDy=0;" parent="1" source="3QzFVQZJp-mWmI0BrGXV-65" target="3QzFVQZJp-mWmI0BrGXV-162" edge="1">
          <mxGeometry relative="1" as="geometry" />
        </mxCell>
        <mxCell id="3QzFVQZJp-mWmI0BrGXV-171" style="edgeStyle=orthogonalEdgeStyle;rounded=0;orthogonalLoop=1;jettySize=auto;html=1;entryX=0;entryY=0.5;entryDx=0;entryDy=0;" parent="1" source="3QzFVQZJp-mWmI0BrGXV-65" target="3QzFVQZJp-mWmI0BrGXV-165" edge="1">
          <mxGeometry relative="1" as="geometry" />
        </mxCell>
        <mxCell id="3QzFVQZJp-mWmI0BrGXV-172" style="edgeStyle=orthogonalEdgeStyle;rounded=0;orthogonalLoop=1;jettySize=auto;html=1;entryX=0;entryY=0.5;entryDx=0;entryDy=0;" parent="1" source="3QzFVQZJp-mWmI0BrGXV-65" target="3QzFVQZJp-mWmI0BrGXV-164" edge="1">
          <mxGeometry relative="1" as="geometry" />
        </mxCell>
        <mxCell id="3QzFVQZJp-mWmI0BrGXV-173" style="edgeStyle=orthogonalEdgeStyle;rounded=0;orthogonalLoop=1;jettySize=auto;html=1;entryX=0;entryY=0.5;entryDx=0;entryDy=0;" parent="1" source="3QzFVQZJp-mWmI0BrGXV-65" target="3QzFVQZJp-mWmI0BrGXV-163" edge="1">
          <mxGeometry relative="1" as="geometry" />
        </mxCell>
        <mxCell id="3QzFVQZJp-mWmI0BrGXV-65" value="Regrasyon&#xa;Testi" style="rounded=1;fillColor=#23445D;gradientColor=none;strokeColor=none;fontColor=#FFFFFF;fontStyle=1;fontFamily=Tahoma;fontSize=14" parent="1" vertex="1">
          <mxGeometry x="1046" y="525.25" width="130" height="60" as="geometry" />
        </mxCell>
        <mxCell id="NLV7-1MvzofAZhKq3dqP-61" style="edgeStyle=orthogonalEdgeStyle;rounded=0;orthogonalLoop=1;jettySize=auto;html=1;entryX=0;entryY=0.5;entryDx=0;entryDy=0;" edge="1" parent="1" source="3QzFVQZJp-mWmI0BrGXV-66" target="NLV7-1MvzofAZhKq3dqP-55">
          <mxGeometry relative="1" as="geometry" />
        </mxCell>
        <mxCell id="NLV7-1MvzofAZhKq3dqP-64" style="edgeStyle=orthogonalEdgeStyle;rounded=0;orthogonalLoop=1;jettySize=auto;html=1;entryX=0;entryY=0.5;entryDx=0;entryDy=0;" edge="1" parent="1" source="3QzFVQZJp-mWmI0BrGXV-66" target="NLV7-1MvzofAZhKq3dqP-56">
          <mxGeometry relative="1" as="geometry" />
        </mxCell>
        <mxCell id="NLV7-1MvzofAZhKq3dqP-65" style="edgeStyle=orthogonalEdgeStyle;rounded=0;orthogonalLoop=1;jettySize=auto;html=1;entryX=0;entryY=0.5;entryDx=0;entryDy=0;" edge="1" parent="1" source="3QzFVQZJp-mWmI0BrGXV-66" target="NLV7-1MvzofAZhKq3dqP-57">
          <mxGeometry relative="1" as="geometry" />
        </mxCell>
        <mxCell id="NLV7-1MvzofAZhKq3dqP-66" style="edgeStyle=orthogonalEdgeStyle;rounded=0;orthogonalLoop=1;jettySize=auto;html=1;entryX=0;entryY=0.5;entryDx=0;entryDy=0;" edge="1" parent="1" source="3QzFVQZJp-mWmI0BrGXV-66" target="NLV7-1MvzofAZhKq3dqP-58">
          <mxGeometry relative="1" as="geometry" />
        </mxCell>
        <mxCell id="NLV7-1MvzofAZhKq3dqP-67" style="edgeStyle=orthogonalEdgeStyle;rounded=0;orthogonalLoop=1;jettySize=auto;html=1;entryX=0;entryY=0.5;entryDx=0;entryDy=0;" edge="1" parent="1" source="3QzFVQZJp-mWmI0BrGXV-66" target="NLV7-1MvzofAZhKq3dqP-59">
          <mxGeometry relative="1" as="geometry" />
        </mxCell>
        <mxCell id="NLV7-1MvzofAZhKq3dqP-68" style="edgeStyle=orthogonalEdgeStyle;rounded=0;orthogonalLoop=1;jettySize=auto;html=1;entryX=0;entryY=0.5;entryDx=0;entryDy=0;" edge="1" parent="1" source="3QzFVQZJp-mWmI0BrGXV-66" target="NLV7-1MvzofAZhKq3dqP-60">
          <mxGeometry relative="1" as="geometry" />
        </mxCell>
        <mxCell id="3QzFVQZJp-mWmI0BrGXV-66" value="Belgeleme&#xa;Testi" style="rounded=1;fillColor=#23445D;gradientColor=none;strokeColor=none;fontColor=#FFFFFF;fontStyle=1;fontFamily=Tahoma;fontSize=14" parent="1" vertex="1">
          <mxGeometry x="1580" y="524.5" width="130" height="60" as="geometry" />
        </mxCell>
        <mxCell id="NLV7-1MvzofAZhKq3dqP-43" style="edgeStyle=orthogonalEdgeStyle;rounded=0;orthogonalLoop=1;jettySize=auto;html=1;entryX=0;entryY=0.5;entryDx=0;entryDy=0;" edge="1" parent="1" source="3QzFVQZJp-mWmI0BrGXV-67" target="NLV7-1MvzofAZhKq3dqP-31">
          <mxGeometry relative="1" as="geometry" />
        </mxCell>
        <mxCell id="NLV7-1MvzofAZhKq3dqP-44" style="edgeStyle=orthogonalEdgeStyle;rounded=0;orthogonalLoop=1;jettySize=auto;html=1;entryX=0;entryY=0.5;entryDx=0;entryDy=0;" edge="1" parent="1" source="3QzFVQZJp-mWmI0BrGXV-67" target="NLV7-1MvzofAZhKq3dqP-32">
          <mxGeometry relative="1" as="geometry" />
        </mxCell>
        <mxCell id="NLV7-1MvzofAZhKq3dqP-46" style="edgeStyle=orthogonalEdgeStyle;rounded=0;orthogonalLoop=1;jettySize=auto;html=1;entryX=0;entryY=0.5;entryDx=0;entryDy=0;" edge="1" parent="1" source="3QzFVQZJp-mWmI0BrGXV-67" target="NLV7-1MvzofAZhKq3dqP-33">
          <mxGeometry relative="1" as="geometry" />
        </mxCell>
        <mxCell id="NLV7-1MvzofAZhKq3dqP-47" style="edgeStyle=orthogonalEdgeStyle;rounded=0;orthogonalLoop=1;jettySize=auto;html=1;entryX=0;entryY=0.5;entryDx=0;entryDy=0;" edge="1" parent="1" source="3QzFVQZJp-mWmI0BrGXV-67" target="NLV7-1MvzofAZhKq3dqP-34">
          <mxGeometry relative="1" as="geometry" />
        </mxCell>
        <mxCell id="NLV7-1MvzofAZhKq3dqP-48" style="edgeStyle=orthogonalEdgeStyle;rounded=0;orthogonalLoop=1;jettySize=auto;html=1;entryX=0;entryY=0.5;entryDx=0;entryDy=0;" edge="1" parent="1" source="3QzFVQZJp-mWmI0BrGXV-67" target="NLV7-1MvzofAZhKq3dqP-35">
          <mxGeometry relative="1" as="geometry" />
        </mxCell>
        <mxCell id="NLV7-1MvzofAZhKq3dqP-49" style="edgeStyle=orthogonalEdgeStyle;rounded=0;orthogonalLoop=1;jettySize=auto;html=1;entryX=0;entryY=0.5;entryDx=0;entryDy=0;" edge="1" parent="1" source="3QzFVQZJp-mWmI0BrGXV-67" target="NLV7-1MvzofAZhKq3dqP-36">
          <mxGeometry relative="1" as="geometry" />
        </mxCell>
        <mxCell id="3QzFVQZJp-mWmI0BrGXV-67" value="Kurulum&#xa;Testi" style="rounded=1;fillColor=#23445D;gradientColor=none;strokeColor=none;fontColor=#FFFFFF;fontStyle=1;fontFamily=Tahoma;fontSize=14" parent="1" vertex="1">
          <mxGeometry x="1780" y="524.25" width="130" height="60" as="geometry" />
        </mxCell>
        <mxCell id="3QzFVQZJp-mWmI0BrGXV-72" style="edgeStyle=orthogonalEdgeStyle;rounded=0;orthogonalLoop=1;jettySize=auto;html=1;entryX=0;entryY=0.5;entryDx=0;entryDy=0;" parent="1" source="3QzFVQZJp-mWmI0BrGXV-68" target="3QzFVQZJp-mWmI0BrGXV-32" edge="1">
          <mxGeometry relative="1" as="geometry" />
        </mxCell>
        <mxCell id="3QzFVQZJp-mWmI0BrGXV-73" style="edgeStyle=orthogonalEdgeStyle;rounded=0;orthogonalLoop=1;jettySize=auto;html=1;entryX=0;entryY=0.5;entryDx=0;entryDy=0;" parent="1" source="3QzFVQZJp-mWmI0BrGXV-68" target="3QzFVQZJp-mWmI0BrGXV-33" edge="1">
          <mxGeometry relative="1" as="geometry" />
        </mxCell>
        <mxCell id="3QzFVQZJp-mWmI0BrGXV-74" style="edgeStyle=orthogonalEdgeStyle;rounded=0;orthogonalLoop=1;jettySize=auto;html=1;entryX=0;entryY=0.5;entryDx=0;entryDy=0;" parent="1" source="3QzFVQZJp-mWmI0BrGXV-68" target="3QzFVQZJp-mWmI0BrGXV-34" edge="1">
          <mxGeometry relative="1" as="geometry" />
        </mxCell>
        <mxCell id="3QzFVQZJp-mWmI0BrGXV-76" style="edgeStyle=orthogonalEdgeStyle;rounded=0;orthogonalLoop=1;jettySize=auto;html=1;entryX=0;entryY=0.5;entryDx=0;entryDy=0;" parent="1" source="3QzFVQZJp-mWmI0BrGXV-68" target="3QzFVQZJp-mWmI0BrGXV-75" edge="1">
          <mxGeometry relative="1" as="geometry" />
        </mxCell>
        <mxCell id="3QzFVQZJp-mWmI0BrGXV-68" value="Performans&#xa;Testi" style="rounded=1;fillColor=#23445D;gradientColor=none;strokeColor=none;fontColor=#FFFFFF;fontStyle=1;fontFamily=Tahoma;fontSize=14" parent="1" vertex="1">
          <mxGeometry x="2000" y="524.25" width="130" height="60" as="geometry" />
        </mxCell>
        <mxCell id="NLV7-1MvzofAZhKq3dqP-8" style="edgeStyle=orthogonalEdgeStyle;rounded=0;orthogonalLoop=1;jettySize=auto;html=1;entryX=0;entryY=0.5;entryDx=0;entryDy=0;" edge="1" parent="1" source="3QzFVQZJp-mWmI0BrGXV-69" target="NLV7-1MvzofAZhKq3dqP-3">
          <mxGeometry relative="1" as="geometry" />
        </mxCell>
        <mxCell id="NLV7-1MvzofAZhKq3dqP-9" style="edgeStyle=orthogonalEdgeStyle;rounded=0;orthogonalLoop=1;jettySize=auto;html=1;entryX=0;entryY=0.5;entryDx=0;entryDy=0;" edge="1" parent="1" source="3QzFVQZJp-mWmI0BrGXV-69" target="NLV7-1MvzofAZhKq3dqP-4">
          <mxGeometry relative="1" as="geometry" />
        </mxCell>
        <mxCell id="NLV7-1MvzofAZhKq3dqP-10" style="edgeStyle=orthogonalEdgeStyle;rounded=0;orthogonalLoop=1;jettySize=auto;html=1;entryX=0;entryY=0.5;entryDx=0;entryDy=0;" edge="1" parent="1" source="3QzFVQZJp-mWmI0BrGXV-69" target="NLV7-1MvzofAZhKq3dqP-5">
          <mxGeometry relative="1" as="geometry" />
        </mxCell>
        <mxCell id="NLV7-1MvzofAZhKq3dqP-11" style="edgeStyle=orthogonalEdgeStyle;rounded=0;orthogonalLoop=1;jettySize=auto;html=1;entryX=0;entryY=0.5;entryDx=0;entryDy=0;" edge="1" parent="1" source="3QzFVQZJp-mWmI0BrGXV-69" target="NLV7-1MvzofAZhKq3dqP-7">
          <mxGeometry relative="1" as="geometry" />
        </mxCell>
        <mxCell id="3QzFVQZJp-mWmI0BrGXV-69" value="Güvenlik&#xa;Testi" style="rounded=1;fillColor=#23445D;gradientColor=none;strokeColor=none;fontColor=#FFFFFF;fontStyle=1;fontFamily=Tahoma;fontSize=14" parent="1" vertex="1">
          <mxGeometry x="2410" y="524.25" width="130" height="60" as="geometry" />
        </mxCell>
        <mxCell id="3QzFVQZJp-mWmI0BrGXV-118" style="edgeStyle=orthogonalEdgeStyle;rounded=0;orthogonalLoop=1;jettySize=auto;html=1;entryX=0;entryY=0.5;entryDx=0;entryDy=0;" parent="1" source="3QzFVQZJp-mWmI0BrGXV-70" target="3QzFVQZJp-mWmI0BrGXV-111" edge="1">
          <mxGeometry relative="1" as="geometry" />
        </mxCell>
        <mxCell id="3QzFVQZJp-mWmI0BrGXV-120" style="edgeStyle=orthogonalEdgeStyle;rounded=0;orthogonalLoop=1;jettySize=auto;html=1;entryX=0;entryY=0.5;entryDx=0;entryDy=0;" parent="1" source="3QzFVQZJp-mWmI0BrGXV-70" target="3QzFVQZJp-mWmI0BrGXV-112" edge="1">
          <mxGeometry relative="1" as="geometry" />
        </mxCell>
        <mxCell id="3QzFVQZJp-mWmI0BrGXV-121" style="edgeStyle=orthogonalEdgeStyle;rounded=0;orthogonalLoop=1;jettySize=auto;html=1;entryX=0;entryY=0.5;entryDx=0;entryDy=0;" parent="1" source="3QzFVQZJp-mWmI0BrGXV-70" target="3QzFVQZJp-mWmI0BrGXV-113" edge="1">
          <mxGeometry relative="1" as="geometry" />
        </mxCell>
        <mxCell id="3QzFVQZJp-mWmI0BrGXV-70" value="Güvenilirlik&#xa;Testi" style="rounded=1;fillColor=#23445D;gradientColor=none;strokeColor=none;fontColor=#FFFFFF;fontStyle=1;fontFamily=Tahoma;fontSize=14" parent="1" vertex="1">
          <mxGeometry x="2200.5" y="524.25" width="130" height="60" as="geometry" />
        </mxCell>
        <mxCell id="3QzFVQZJp-mWmI0BrGXV-75" value="Hacim Testi" style="rounded=1;fillColor=#23445D;gradientColor=none;strokeColor=none;fontColor=#FFFFFF;fontStyle=1;fontFamily=Tahoma;fontSize=14" parent="1" vertex="1">
          <mxGeometry x="2094" y="890" width="115" height="50" as="geometry" />
        </mxCell>
        <mxCell id="3QzFVQZJp-mWmI0BrGXV-78" value="Bildirim&#xa;Kapsamı" style="rounded=1;fillColor=#23445D;gradientColor=none;strokeColor=none;fontColor=#FFFFFF;fontStyle=1;fontFamily=Tahoma;fontSize=14" parent="1" vertex="1">
          <mxGeometry x="286" y="611" width="115" height="50" as="geometry" />
        </mxCell>
        <mxCell id="3QzFVQZJp-mWmI0BrGXV-79" value="Karar&#xa;Kapsamı" style="rounded=1;fillColor=#23445D;gradientColor=none;strokeColor=none;fontColor=#FFFFFF;fontStyle=1;fontFamily=Tahoma;fontSize=14" parent="1" vertex="1">
          <mxGeometry x="286" y="701" width="115" height="50" as="geometry" />
        </mxCell>
        <mxCell id="3QzFVQZJp-mWmI0BrGXV-80" value="Şube&#xa;Kapsamı" style="rounded=1;fillColor=#23445D;gradientColor=none;strokeColor=none;fontColor=#FFFFFF;fontStyle=1;fontFamily=Tahoma;fontSize=14" parent="1" vertex="1">
          <mxGeometry x="290.5" y="791" width="115" height="50" as="geometry" />
        </mxCell>
        <mxCell id="3QzFVQZJp-mWmI0BrGXV-81" value="Toggle&#xa;Kapsamı" style="rounded=1;fillColor=#23445D;gradientColor=none;strokeColor=none;fontColor=#FFFFFF;fontStyle=1;fontFamily=Tahoma;fontSize=14" parent="1" vertex="1">
          <mxGeometry x="290.5" y="881" width="115" height="50" as="geometry" />
        </mxCell>
        <mxCell id="3QzFVQZJp-mWmI0BrGXV-87" value="FSM Kapsamı" style="rounded=1;fillColor=#23445D;gradientColor=none;strokeColor=none;fontColor=#FFFFFF;fontStyle=1;fontFamily=Tahoma;fontSize=14" parent="1" vertex="1">
          <mxGeometry x="290.5" y="971" width="115" height="50" as="geometry" />
        </mxCell>
        <mxCell id="3QzFVQZJp-mWmI0BrGXV-89" value="Big-Bang" style="rounded=1;fillColor=#23445D;gradientColor=none;strokeColor=none;fontColor=#FFFFFF;fontStyle=1;fontFamily=Tahoma;fontSize=14" parent="1" vertex="1">
          <mxGeometry x="486.5" y="611" width="115" height="50" as="geometry" />
        </mxCell>
        <mxCell id="3QzFVQZJp-mWmI0BrGXV-90" value="Top-Down&#xa;(Yukarıdan aşağı)" style="rounded=1;fillColor=#23445D;gradientColor=none;strokeColor=none;fontColor=#FFFFFF;fontStyle=1;fontFamily=Tahoma;fontSize=14" parent="1" vertex="1">
          <mxGeometry x="486.5" y="701" width="115" height="50" as="geometry" />
        </mxCell>
        <mxCell id="3QzFVQZJp-mWmI0BrGXV-91" value="Bottom-Up&#xa;(Aşağıdan Yukarı)" style="rounded=1;fillColor=#23445D;gradientColor=none;strokeColor=none;fontColor=#FFFFFF;fontStyle=1;fontFamily=Tahoma;fontSize=14" parent="1" vertex="1">
          <mxGeometry x="491" y="791" width="115" height="50" as="geometry" />
        </mxCell>
        <mxCell id="3QzFVQZJp-mWmI0BrGXV-92" value="Sandviç/&#xa;Hibrit" style="rounded=1;fillColor=#23445D;gradientColor=none;strokeColor=none;fontColor=#FFFFFF;fontStyle=1;fontFamily=Tahoma;fontSize=14" parent="1" vertex="1">
          <mxGeometry x="491" y="881" width="115" height="50" as="geometry" />
        </mxCell>
        <mxCell id="3QzFVQZJp-mWmI0BrGXV-99" value="" style="fillColor=#12AAB5;strokeColor=none;opacity=30;" parent="1" vertex="1">
          <mxGeometry x="682" y="606" width="140" height="335" as="geometry" />
        </mxCell>
        <mxCell id="3QzFVQZJp-mWmI0BrGXV-100" value="İş Akışı" style="rounded=1;fillColor=#23445D;gradientColor=none;strokeColor=none;fontColor=#FFFFFF;fontStyle=1;fontFamily=Tahoma;fontSize=14" parent="1" vertex="1">
          <mxGeometry x="694.5" y="611" width="115" height="50" as="geometry" />
        </mxCell>
        <mxCell id="3QzFVQZJp-mWmI0BrGXV-101" value="Kenar Durumları&#xa;Beklenmedik&#xa;Değerler" style="rounded=1;fillColor=#23445D;gradientColor=none;strokeColor=none;fontColor=#FFFFFF;fontStyle=1;fontFamily=Tahoma;fontSize=14" parent="1" vertex="1">
          <mxGeometry x="694.5" y="701" width="115" height="50" as="geometry" />
        </mxCell>
        <mxCell id="3QzFVQZJp-mWmI0BrGXV-102" value="Bireysel&#xa;Sistemler" style="rounded=1;fillColor=#23445D;gradientColor=none;strokeColor=none;fontColor=#FFFFFF;fontStyle=1;fontFamily=Tahoma;fontSize=14" parent="1" vertex="1">
          <mxGeometry x="699" y="791" width="115" height="50" as="geometry" />
        </mxCell>
        <mxCell id="3QzFVQZJp-mWmI0BrGXV-103" value="Performans, Yük&#xa;Ağ Testi" style="rounded=1;fillColor=#23445D;gradientColor=none;strokeColor=none;fontColor=#FFFFFF;fontStyle=1;fontFamily=Tahoma;fontSize=14" parent="1" vertex="1">
          <mxGeometry x="699" y="881" width="115" height="50" as="geometry" />
        </mxCell>
        <mxCell id="3QzFVQZJp-mWmI0BrGXV-110" value="" style="fillColor=#12AAB5;strokeColor=none;opacity=30;" parent="1" vertex="1">
          <mxGeometry x="2282" y="596.5" width="140" height="273.5" as="geometry" />
        </mxCell>
        <mxCell id="3QzFVQZJp-mWmI0BrGXV-111" value="Modelleme" style="rounded=1;fillColor=#23445D;gradientColor=none;strokeColor=none;fontColor=#FFFFFF;fontStyle=1;fontFamily=Tahoma;fontSize=14" parent="1" vertex="1">
          <mxGeometry x="2293.25" y="620" width="115" height="50" as="geometry" />
        </mxCell>
        <mxCell id="3QzFVQZJp-mWmI0BrGXV-112" value="Ölçüm" style="rounded=1;fillColor=#23445D;gradientColor=none;strokeColor=none;fontColor=#FFFFFF;fontStyle=1;fontFamily=Tahoma;fontSize=14" parent="1" vertex="1">
          <mxGeometry x="2293.25" y="710" width="115" height="50" as="geometry" />
        </mxCell>
        <mxCell id="3QzFVQZJp-mWmI0BrGXV-113" value="İyileşme" style="rounded=1;fillColor=#23445D;gradientColor=none;strokeColor=none;fontColor=#FFFFFF;fontStyle=1;fontFamily=Tahoma;fontSize=14" parent="1" vertex="1">
          <mxGeometry x="2297.75" y="800" width="115" height="50" as="geometry" />
        </mxCell>
        <mxCell id="3QzFVQZJp-mWmI0BrGXV-123" value="" style="fillColor=#12AAB5;strokeColor=none;opacity=30;" parent="1" vertex="1">
          <mxGeometry x="906" y="606" width="140" height="615" as="geometry" />
        </mxCell>
        <mxCell id="3QzFVQZJp-mWmI0BrGXV-124" value="Kullanılabilirlik&#xa;Testi" style="rounded=1;fillColor=#23445D;gradientColor=none;strokeColor=none;fontColor=#FFFFFF;fontStyle=1;fontFamily=Tahoma;fontSize=14" parent="1" vertex="1">
          <mxGeometry x="918.5" y="611" width="115" height="50" as="geometry" />
        </mxCell>
        <mxCell id="3QzFVQZJp-mWmI0BrGXV-125" value="Yük Testi" style="rounded=1;fillColor=#23445D;gradientColor=none;strokeColor=none;fontColor=#FFFFFF;fontStyle=1;fontFamily=Tahoma;fontSize=14" parent="1" vertex="1">
          <mxGeometry x="918.5" y="701" width="115" height="50" as="geometry" />
        </mxCell>
        <mxCell id="3QzFVQZJp-mWmI0BrGXV-126" value="Regresyon&#xa;Testi" style="rounded=1;fillColor=#23445D;gradientColor=none;strokeColor=none;fontColor=#FFFFFF;fontStyle=1;fontFamily=Tahoma;fontSize=14" parent="1" vertex="1">
          <mxGeometry x="923" y="791" width="115" height="50" as="geometry" />
        </mxCell>
        <mxCell id="3QzFVQZJp-mWmI0BrGXV-127" value="Kurtarma&#xa;Testi" style="rounded=1;fillColor=#23445D;gradientColor=none;strokeColor=none;fontColor=#FFFFFF;fontStyle=1;fontFamily=Tahoma;fontSize=14" parent="1" vertex="1">
          <mxGeometry x="923" y="881" width="115" height="50" as="geometry" />
        </mxCell>
        <mxCell id="3QzFVQZJp-mWmI0BrGXV-128" value="Donanım/Yazılım&#xa;Testi" style="rounded=1;fillColor=#23445D;gradientColor=none;strokeColor=none;fontColor=#FFFFFF;fontStyle=1;fontFamily=Tahoma;fontSize=14" parent="1" vertex="1">
          <mxGeometry x="923" y="1151" width="115" height="50" as="geometry" />
        </mxCell>
        <mxCell id="3QzFVQZJp-mWmI0BrGXV-130" value="Fonksiyonellik&#xa;Testi" style="rounded=1;fillColor=#23445D;gradientColor=none;strokeColor=none;fontColor=#FFFFFF;fontStyle=1;fontFamily=Tahoma;fontSize=14" parent="1" vertex="1">
          <mxGeometry x="923" y="1061" width="115" height="50" as="geometry" />
        </mxCell>
        <mxCell id="3QzFVQZJp-mWmI0BrGXV-131" value="Göç Testi" style="rounded=1;fillColor=#23445D;gradientColor=none;strokeColor=none;fontColor=#FFFFFF;fontStyle=1;fontFamily=Tahoma;fontSize=14" parent="1" vertex="1">
          <mxGeometry x="923" y="971" width="115" height="50" as="geometry" />
        </mxCell>
        <mxCell id="3QzFVQZJp-mWmI0BrGXV-158" value="" style="fillColor=#12AAB5;strokeColor=none;opacity=30;" parent="1" vertex="1">
          <mxGeometry x="1126" y="603" width="140" height="630" as="geometry" />
        </mxCell>
        <mxCell id="3QzFVQZJp-mWmI0BrGXV-159" value="Düzeltici&#xa;Regresyon&#xa;Testi" style="rounded=1;fillColor=#23445D;gradientColor=none;strokeColor=none;fontColor=#FFFFFF;fontStyle=1;fontFamily=Tahoma;fontSize=14" parent="1" vertex="1">
          <mxGeometry x="1140.5" y="608" width="115" height="65" as="geometry" />
        </mxCell>
        <mxCell id="3QzFVQZJp-mWmI0BrGXV-160" value="Retest-all&#xa;Regresyon&#xa;Testi" style="rounded=1;fillColor=#23445D;gradientColor=none;strokeColor=none;fontColor=#FFFFFF;fontStyle=1;fontFamily=Tahoma;fontSize=14" parent="1" vertex="1">
          <mxGeometry x="1138.5" y="701" width="115" height="65" as="geometry" />
        </mxCell>
        <mxCell id="3QzFVQZJp-mWmI0BrGXV-161" value="Seçici&#xa;Regresyon&#xa;Testi" style="rounded=1;fillColor=#23445D;gradientColor=none;strokeColor=none;fontColor=#FFFFFF;fontStyle=1;fontFamily=Tahoma;fontSize=14" parent="1" vertex="1">
          <mxGeometry x="1141" y="796" width="115" height="65" as="geometry" />
        </mxCell>
        <mxCell id="3QzFVQZJp-mWmI0BrGXV-162" value="Kademeli&#xa;Regresyon&#xa;Testi" style="rounded=1;fillColor=#23445D;gradientColor=none;strokeColor=none;fontColor=#FFFFFF;fontStyle=1;fontFamily=Tahoma;fontSize=14" parent="1" vertex="1">
          <mxGeometry x="1141" y="886" width="115" height="65" as="geometry" />
        </mxCell>
        <mxCell id="3QzFVQZJp-mWmI0BrGXV-163" value="Birim&#xa;Regresyon&#xa;Testi" style="rounded=1;fillColor=#23445D;gradientColor=none;strokeColor=none;fontColor=#FFFFFF;fontStyle=1;fontFamily=Tahoma;fontSize=14" parent="1" vertex="1">
          <mxGeometry x="1141" y="1156" width="115" height="65" as="geometry" />
        </mxCell>
        <mxCell id="3QzFVQZJp-mWmI0BrGXV-164" value="Kısmi (parçalı)&#xa;Regresyon&#xa;Testi" style="rounded=1;fillColor=#23445D;gradientColor=none;strokeColor=none;fontColor=#FFFFFF;fontStyle=1;fontFamily=Tahoma;fontSize=14" parent="1" vertex="1">
          <mxGeometry x="1141" y="1066" width="115" height="65" as="geometry" />
        </mxCell>
        <mxCell id="3QzFVQZJp-mWmI0BrGXV-165" value="Tam&#xa;Regresyon&#xa;Testi" style="rounded=1;fillColor=#23445D;gradientColor=none;strokeColor=none;fontColor=#FFFFFF;fontStyle=1;fontFamily=Tahoma;fontSize=14" parent="1" vertex="1">
          <mxGeometry x="1141" y="976" width="115" height="65" as="geometry" />
        </mxCell>
        <mxCell id="3QzFVQZJp-mWmI0BrGXV-174" value="" style="fillColor=#12AAB5;strokeColor=none;opacity=30;" parent="1" vertex="1">
          <mxGeometry x="1331" y="603" width="140" height="425" as="geometry" />
        </mxCell>
        <mxCell id="3QzFVQZJp-mWmI0BrGXV-175" value="Alfa Testi" style="rounded=1;fillColor=#23445D;gradientColor=none;strokeColor=none;fontColor=#FFFFFF;fontStyle=1;fontFamily=Tahoma;fontSize=14" parent="1" vertex="1">
          <mxGeometry x="1342" y="608" width="115" height="50" as="geometry" />
        </mxCell>
        <mxCell id="3QzFVQZJp-mWmI0BrGXV-176" value="Düzenleme&#xa;Kabul Testi" style="rounded=1;fillColor=#23445D;gradientColor=none;strokeColor=none;fontColor=#FFFFFF;fontStyle=1;fontFamily=Tahoma;fontSize=14" parent="1" vertex="1">
          <mxGeometry x="1346.5" y="781" width="115" height="50" as="geometry" />
        </mxCell>
        <mxCell id="3QzFVQZJp-mWmI0BrGXV-177" value="Beta Testi" style="rounded=1;fillColor=#23445D;gradientColor=none;strokeColor=none;fontColor=#FFFFFF;fontStyle=1;fontFamily=Tahoma;fontSize=14" parent="1" vertex="1">
          <mxGeometry x="1344" y="691" width="115" height="50" as="geometry" />
        </mxCell>
        <mxCell id="3QzFVQZJp-mWmI0BrGXV-178" value="İşletme&#xa;Kabul Testi" style="rounded=1;fillColor=#23445D;gradientColor=none;strokeColor=none;fontColor=#FFFFFF;fontStyle=1;fontFamily=Tahoma;fontSize=14" parent="1" vertex="1">
          <mxGeometry x="1346.5" y="878" width="115" height="50" as="geometry" />
        </mxCell>
        <mxCell id="3QzFVQZJp-mWmI0BrGXV-179" value="Siyah Kutu&#xa;Testi" style="rounded=1;fillColor=#23445D;gradientColor=none;strokeColor=none;fontColor=#FFFFFF;fontStyle=1;fontFamily=Tahoma;fontSize=14" parent="1" vertex="1">
          <mxGeometry x="1346.5" y="968" width="115" height="50" as="geometry" />
        </mxCell>
        <mxCell id="NLV7-1MvzofAZhKq3dqP-1" style="edgeStyle=orthogonalEdgeStyle;rounded=0;orthogonalLoop=1;jettySize=auto;html=1;exitX=0;exitY=1;exitDx=0;exitDy=0;entryX=0.095;entryY=1.009;entryDx=0;entryDy=0;entryPerimeter=0;" edge="1" parent="1" source="3QzFVQZJp-mWmI0BrGXV-113" target="3QzFVQZJp-mWmI0BrGXV-113">
          <mxGeometry relative="1" as="geometry" />
        </mxCell>
        <mxCell id="NLV7-1MvzofAZhKq3dqP-2" value="" style="fillColor=#12AAB5;strokeColor=none;opacity=30;" vertex="1" parent="1">
          <mxGeometry x="2490" y="596.5" width="140" height="353.5" as="geometry" />
        </mxCell>
        <mxCell id="NLV7-1MvzofAZhKq3dqP-23" style="edgeStyle=orthogonalEdgeStyle;rounded=0;orthogonalLoop=1;jettySize=auto;html=1;entryX=0;entryY=0.5;entryDx=0;entryDy=0;" edge="1" parent="1" source="NLV7-1MvzofAZhKq3dqP-3" target="NLV7-1MvzofAZhKq3dqP-22">
          <mxGeometry relative="1" as="geometry" />
        </mxCell>
        <mxCell id="NLV7-1MvzofAZhKq3dqP-24" style="edgeStyle=orthogonalEdgeStyle;rounded=0;orthogonalLoop=1;jettySize=auto;html=1;entryX=0;entryY=0.5;entryDx=0;entryDy=0;" edge="1" parent="1" source="NLV7-1MvzofAZhKq3dqP-3" target="NLV7-1MvzofAZhKq3dqP-18">
          <mxGeometry relative="1" as="geometry" />
        </mxCell>
        <mxCell id="NLV7-1MvzofAZhKq3dqP-25" style="edgeStyle=orthogonalEdgeStyle;rounded=0;orthogonalLoop=1;jettySize=auto;html=1;entryX=0;entryY=0.5;entryDx=0;entryDy=0;" edge="1" parent="1" source="NLV7-1MvzofAZhKq3dqP-3" target="NLV7-1MvzofAZhKq3dqP-19">
          <mxGeometry relative="1" as="geometry" />
        </mxCell>
        <mxCell id="NLV7-1MvzofAZhKq3dqP-26" style="edgeStyle=orthogonalEdgeStyle;rounded=0;orthogonalLoop=1;jettySize=auto;html=1;" edge="1" parent="1" source="NLV7-1MvzofAZhKq3dqP-3" target="NLV7-1MvzofAZhKq3dqP-16">
          <mxGeometry relative="1" as="geometry" />
        </mxCell>
        <mxCell id="NLV7-1MvzofAZhKq3dqP-27" style="edgeStyle=orthogonalEdgeStyle;rounded=0;orthogonalLoop=1;jettySize=auto;html=1;entryX=0;entryY=0.5;entryDx=0;entryDy=0;" edge="1" parent="1" source="NLV7-1MvzofAZhKq3dqP-3" target="NLV7-1MvzofAZhKq3dqP-17">
          <mxGeometry relative="1" as="geometry" />
        </mxCell>
        <mxCell id="NLV7-1MvzofAZhKq3dqP-28" style="edgeStyle=orthogonalEdgeStyle;rounded=0;orthogonalLoop=1;jettySize=auto;html=1;entryX=0;entryY=0.5;entryDx=0;entryDy=0;" edge="1" parent="1" source="NLV7-1MvzofAZhKq3dqP-3" target="NLV7-1MvzofAZhKq3dqP-20">
          <mxGeometry relative="1" as="geometry" />
        </mxCell>
        <mxCell id="NLV7-1MvzofAZhKq3dqP-29" style="edgeStyle=orthogonalEdgeStyle;rounded=0;orthogonalLoop=1;jettySize=auto;html=1;entryX=0;entryY=0.5;entryDx=0;entryDy=0;" edge="1" parent="1" source="NLV7-1MvzofAZhKq3dqP-3" target="NLV7-1MvzofAZhKq3dqP-21">
          <mxGeometry relative="1" as="geometry" />
        </mxCell>
        <mxCell id="NLV7-1MvzofAZhKq3dqP-3" value="Penetrasyon&#xa;Testi" style="rounded=1;fillColor=#23445D;gradientColor=none;strokeColor=none;fontColor=#FFFFFF;fontStyle=1;fontFamily=Tahoma;fontSize=14" vertex="1" parent="1">
          <mxGeometry x="2501.25" y="620" width="115" height="50" as="geometry" />
        </mxCell>
        <mxCell id="NLV7-1MvzofAZhKq3dqP-4" value="Uygunluk&#xa;Testi" style="rounded=1;fillColor=#23445D;gradientColor=none;strokeColor=none;fontColor=#FFFFFF;fontStyle=1;fontFamily=Tahoma;fontSize=14" vertex="1" parent="1">
          <mxGeometry x="2501.25" y="707.5" width="115" height="50" as="geometry" />
        </mxCell>
        <mxCell id="NLV7-1MvzofAZhKq3dqP-13" style="edgeStyle=orthogonalEdgeStyle;rounded=0;orthogonalLoop=1;jettySize=auto;html=1;entryX=0;entryY=0.5;entryDx=0;entryDy=0;" edge="1" parent="1" source="NLV7-1MvzofAZhKq3dqP-5" target="NLV7-1MvzofAZhKq3dqP-12">
          <mxGeometry relative="1" as="geometry" />
        </mxCell>
        <mxCell id="NLV7-1MvzofAZhKq3dqP-15" style="edgeStyle=orthogonalEdgeStyle;rounded=0;orthogonalLoop=1;jettySize=auto;html=1;entryX=0;entryY=0.5;entryDx=0;entryDy=0;" edge="1" parent="1" source="NLV7-1MvzofAZhKq3dqP-5" target="NLV7-1MvzofAZhKq3dqP-14">
          <mxGeometry relative="1" as="geometry" />
        </mxCell>
        <mxCell id="NLV7-1MvzofAZhKq3dqP-5" value="Yük Testi" style="rounded=1;fillColor=#23445D;gradientColor=none;strokeColor=none;fontColor=#FFFFFF;fontStyle=1;fontFamily=Tahoma;fontSize=14" vertex="1" parent="1">
          <mxGeometry x="2501.25" y="800" width="115" height="50" as="geometry" />
        </mxCell>
        <mxCell id="NLV7-1MvzofAZhKq3dqP-6" style="edgeStyle=orthogonalEdgeStyle;rounded=0;orthogonalLoop=1;jettySize=auto;html=1;exitX=0;exitY=1;exitDx=0;exitDy=0;entryX=0.095;entryY=1.009;entryDx=0;entryDy=0;entryPerimeter=0;" edge="1" source="NLV7-1MvzofAZhKq3dqP-5" target="NLV7-1MvzofAZhKq3dqP-5" parent="1">
          <mxGeometry relative="1" as="geometry" />
        </mxCell>
        <mxCell id="NLV7-1MvzofAZhKq3dqP-7" value="Köken Analizi&#xa;Testi" style="rounded=1;fillColor=#23445D;gradientColor=none;strokeColor=none;fontColor=#FFFFFF;fontStyle=1;fontFamily=Tahoma;fontSize=14" vertex="1" parent="1">
          <mxGeometry x="2505.75" y="877" width="115" height="50" as="geometry" />
        </mxCell>
        <mxCell id="NLV7-1MvzofAZhKq3dqP-12" value="DOS" style="rounded=1;fillColor=#23445D;gradientColor=none;strokeColor=none;fontColor=#FFFFFF;fontStyle=1;fontFamily=Tahoma;fontSize=14" vertex="1" parent="1">
          <mxGeometry x="2660" y="854.5" width="110" height="40" as="geometry" />
        </mxCell>
        <mxCell id="NLV7-1MvzofAZhKq3dqP-14" value="DDOS" style="rounded=1;fillColor=#23445D;gradientColor=none;strokeColor=none;fontColor=#FFFFFF;fontStyle=1;fontFamily=Tahoma;fontSize=14" vertex="1" parent="1">
          <mxGeometry x="2660" y="910" width="110" height="40" as="geometry" />
        </mxCell>
        <mxCell id="NLV7-1MvzofAZhKq3dqP-16" value="Unauthorized&#xa;Data access" style="rounded=1;fillColor=#23445D;gradientColor=none;strokeColor=none;fontColor=#FFFFFF;fontStyle=1;fontFamily=Tahoma;fontSize=14" vertex="1" parent="1">
          <mxGeometry x="2660" y="635.88" width="110" height="40" as="geometry" />
        </mxCell>
        <mxCell id="NLV7-1MvzofAZhKq3dqP-17" value="URL&#xa;Manipulation" style="rounded=1;fillColor=#23445D;gradientColor=none;strokeColor=none;fontColor=#FFFFFF;fontStyle=1;fontFamily=Tahoma;fontSize=14" vertex="1" parent="1">
          <mxGeometry x="2660" y="691.38" width="110" height="40" as="geometry" />
        </mxCell>
        <mxCell id="NLV7-1MvzofAZhKq3dqP-18" value="Privilege &#xa;Elevation" style="rounded=1;fillColor=#23445D;gradientColor=none;strokeColor=none;fontColor=#FFFFFF;fontStyle=1;fontFamily=Tahoma;fontSize=14" vertex="1" parent="1">
          <mxGeometry x="2660" y="523.13" width="110" height="40" as="geometry" />
        </mxCell>
        <mxCell id="NLV7-1MvzofAZhKq3dqP-19" value="SQL Injection" style="rounded=1;fillColor=#23445D;gradientColor=none;strokeColor=none;fontColor=#FFFFFF;fontStyle=1;fontFamily=Tahoma;fontSize=14" vertex="1" parent="1">
          <mxGeometry x="2660" y="578.63" width="110" height="40" as="geometry" />
        </mxCell>
        <mxCell id="NLV7-1MvzofAZhKq3dqP-20" value="Data&#xa;Manipulation" style="rounded=1;fillColor=#23445D;gradientColor=none;strokeColor=none;fontColor=#FFFFFF;fontStyle=1;fontFamily=Tahoma;fontSize=14" vertex="1" parent="1">
          <mxGeometry x="2660" y="744.5" width="110" height="40" as="geometry" />
        </mxCell>
        <mxCell id="NLV7-1MvzofAZhKq3dqP-21" value="Identity&#xa;Spoofing" style="rounded=1;fillColor=#23445D;gradientColor=none;strokeColor=none;fontColor=#FFFFFF;fontStyle=1;fontFamily=Tahoma;fontSize=14" vertex="1" parent="1">
          <mxGeometry x="2660" y="800" width="110" height="40" as="geometry" />
        </mxCell>
        <mxCell id="NLV7-1MvzofAZhKq3dqP-22" value="XSS" style="rounded=1;fillColor=#23445D;gradientColor=none;strokeColor=none;fontColor=#FFFFFF;fontStyle=1;fontFamily=Tahoma;fontSize=14" vertex="1" parent="1">
          <mxGeometry x="2660" y="472" width="110" height="40" as="geometry" />
        </mxCell>
        <mxCell id="NLV7-1MvzofAZhKq3dqP-30" value="" style="fillColor=#12AAB5;strokeColor=none;opacity=30;" vertex="1" parent="1">
          <mxGeometry x="1858" y="603" width="142" height="543" as="geometry" />
        </mxCell>
        <mxCell id="NLV7-1MvzofAZhKq3dqP-31" value="Full versiyon&#xa;Yükleme Testi" style="rounded=1;fillColor=#23445D;gradientColor=none;strokeColor=none;fontColor=#FFFFFF;fontStyle=1;fontFamily=Tahoma;fontSize=14" vertex="1" parent="1">
          <mxGeometry x="1870" y="631.88" width="115" height="50" as="geometry" />
        </mxCell>
        <mxCell id="NLV7-1MvzofAZhKq3dqP-32" value="Dağıtılmış&#xa;Test Ortamı" style="rounded=1;fillColor=#23445D;gradientColor=none;strokeColor=none;fontColor=#FFFFFF;fontStyle=1;fontFamily=Tahoma;fontSize=14" vertex="1" parent="1">
          <mxGeometry x="1870" y="716.5" width="115" height="50" as="geometry" />
        </mxCell>
        <mxCell id="NLV7-1MvzofAZhKq3dqP-33" value="Otomatik&#xa;Kurulum Testi" style="rounded=1;fillColor=#23445D;gradientColor=none;strokeColor=none;fontColor=#FFFFFF;fontStyle=1;fontFamily=Tahoma;fontSize=14" vertex="1" parent="1">
          <mxGeometry x="1870" y="806" width="115" height="50" as="geometry" />
        </mxCell>
        <mxCell id="NLV7-1MvzofAZhKq3dqP-34" value="Kurulum için&#xa;gerekli disk alanı" style="rounded=1;fillColor=#23445D;gradientColor=none;strokeColor=none;fontColor=#FFFFFF;fontStyle=1;fontFamily=Tahoma;fontSize=14" vertex="1" parent="1">
          <mxGeometry x="1870" y="896" width="115" height="50" as="geometry" />
        </mxCell>
        <mxCell id="NLV7-1MvzofAZhKq3dqP-35" value="Kurulum Sonrası&#xa;Bakım" style="rounded=1;fillColor=#23445D;gradientColor=none;strokeColor=none;fontColor=#FFFFFF;fontStyle=1;fontFamily=Tahoma;fontSize=14" vertex="1" parent="1">
          <mxGeometry x="1870" y="986" width="115" height="50" as="geometry" />
        </mxCell>
        <mxCell id="NLV7-1MvzofAZhKq3dqP-36" value="Kaldırma&#xa;Testi" style="rounded=1;fillColor=#23445D;gradientColor=none;strokeColor=none;fontColor=#FFFFFF;fontStyle=1;fontFamily=Tahoma;fontSize=14" vertex="1" parent="1">
          <mxGeometry x="1870" y="1076" width="115" height="50" as="geometry" />
        </mxCell>
        <mxCell id="NLV7-1MvzofAZhKq3dqP-54" value="" style="fillColor=#12AAB5;strokeColor=none;opacity=30;" vertex="1" parent="1">
          <mxGeometry x="1660" y="606" width="142" height="543" as="geometry" />
        </mxCell>
        <mxCell id="NLV7-1MvzofAZhKq3dqP-55" value="Test durumu&#xa;Özellikleri" style="rounded=1;fillColor=#23445D;gradientColor=none;strokeColor=none;fontColor=#FFFFFF;fontStyle=1;fontFamily=Tahoma;fontSize=14" vertex="1" parent="1">
          <mxGeometry x="1672" y="634.88" width="115" height="50" as="geometry" />
        </mxCell>
        <mxCell id="NLV7-1MvzofAZhKq3dqP-56" value="Test olay&#xa;Raporu" style="rounded=1;fillColor=#23445D;gradientColor=none;strokeColor=none;fontColor=#FFFFFF;fontStyle=1;fontFamily=Tahoma;fontSize=14" vertex="1" parent="1">
          <mxGeometry x="1672" y="719.5" width="115" height="50" as="geometry" />
        </mxCell>
        <mxCell id="NLV7-1MvzofAZhKq3dqP-57" value="Test Günlüğü" style="rounded=1;fillColor=#23445D;gradientColor=none;strokeColor=none;fontColor=#FFFFFF;fontStyle=1;fontFamily=Tahoma;fontSize=14" vertex="1" parent="1">
          <mxGeometry x="1672" y="809" width="115" height="50" as="geometry" />
        </mxCell>
        <mxCell id="NLV7-1MvzofAZhKq3dqP-58" value="Test Planı" style="rounded=1;fillColor=#23445D;gradientColor=none;strokeColor=none;fontColor=#FFFFFF;fontStyle=1;fontFamily=Tahoma;fontSize=14" vertex="1" parent="1">
          <mxGeometry x="1672" y="899" width="115" height="50" as="geometry" />
        </mxCell>
        <mxCell id="NLV7-1MvzofAZhKq3dqP-59" value="Test Prosedürü" style="rounded=1;fillColor=#23445D;gradientColor=none;strokeColor=none;fontColor=#FFFFFF;fontStyle=1;fontFamily=Tahoma;fontSize=14" vertex="1" parent="1">
          <mxGeometry x="1672" y="989" width="115" height="50" as="geometry" />
        </mxCell>
        <mxCell id="NLV7-1MvzofAZhKq3dqP-60" value="Test Raporu" style="rounded=1;fillColor=#23445D;gradientColor=none;strokeColor=none;fontColor=#FFFFFF;fontStyle=1;fontFamily=Tahoma;fontSize=14" vertex="1" parent="1">
          <mxGeometry x="1672" y="1079" width="115" height="50" as="geometry" />
        </mxCell>
      </root>
    </mxGraphModel>
  </diagram>
</mxfile>
